<mxfile host="app.diagrams.net" agent="Mozilla/5.0 (Macintosh; Intel Mac OS X 10_15_7) AppleWebKit/605.1.15 (KHTML, like Gecko) Version/18.5 Safari/605.1.15" version="28.2.5" pages="2">
  <diagram name="Page-1" id="IX0gF8xBQhVgOoYhGmKn">
    <mxGraphModel dx="1627" dy="1120" grid="0" gridSize="10" guides="1" tooltips="1" connect="1" arrows="1" fold="1" page="0" pageScale="1" pageWidth="2336" pageHeight="1654" background="#ffffff" math="0" shadow="0">
      <root>
        <mxCell id="0" />
        <mxCell id="1" parent="0" />
        <mxCell id="_vE2uxAOc8D60CeV_qMY-5" value="Users" style="swimlane;whiteSpace=wrap;html=1;fillColor=#fa6800;strokeColor=#C73500;fontColor=#000000;" parent="1" vertex="1">
          <mxGeometry x="120" y="120" width="220" height="190" as="geometry">
            <mxRectangle x="430" y="130" width="140" height="30" as="alternateBounds" />
          </mxGeometry>
        </mxCell>
        <mxCell id="_vE2uxAOc8D60CeV_qMY-6" value="&lt;div style=&quot;&quot;&gt;&lt;span style=&quot;white-space: normal; font-family: &amp;quot;TH Sarabun New&amp;quot;, sans-serif;&quot; lang=&quot;EN-US&quot;&gt;&lt;font&gt;DisplayName_id&lt;/font&gt;&lt;/span&gt;&lt;span style=&quot;font-family: -webkit-standard; white-space: normal;&quot;&gt;&lt;/span&gt;&lt;br&gt;&lt;/div&gt;&lt;span style=&quot;font-family: -webkit-standard; white-space: normal;&quot;&gt;&lt;/span&gt;" style="text;html=1;align=left;verticalAlign=middle;resizable=0;points=[];autosize=1;strokeColor=none;fillColor=none;fontSize=11;" parent="_vE2uxAOc8D60CeV_qMY-5" vertex="1">
          <mxGeometry x="10" y="30" width="100" height="30" as="geometry" />
        </mxCell>
        <mxCell id="_vE2uxAOc8D60CeV_qMY-7" value="&lt;span style=&quot;white-space: normal; font-family: &amp;quot;TH Sarabun New&amp;quot;, sans-serif; border: 1pt windowtext; padding: 0cm;&quot; lang=&quot;EN-US&quot;&gt;&lt;font&gt;displayName&lt;/font&gt;&lt;/span&gt;&lt;span style=&quot;font-family: -webkit-standard; white-space: normal;&quot;&gt;&lt;/span&gt;" style="text;html=1;align=left;verticalAlign=middle;resizable=0;points=[];autosize=1;strokeColor=none;fillColor=none;fontSize=11;" parent="_vE2uxAOc8D60CeV_qMY-5" vertex="1">
          <mxGeometry x="10" y="60" width="90" height="30" as="geometry" />
        </mxCell>
        <mxCell id="_vE2uxAOc8D60CeV_qMY-8" value="&lt;span style=&quot;white-space: normal; font-family: &amp;quot;TH Sarabun New&amp;quot;, sans-serif; border: 1pt windowtext; padding: 0cm;&quot; lang=&quot;EN-US&quot;&gt;&lt;font&gt;email&lt;/font&gt;&lt;/span&gt;&lt;span style=&quot;font-family: -webkit-standard; white-space: normal;&quot;&gt;&lt;/span&gt;" style="text;html=1;align=left;verticalAlign=middle;resizable=0;points=[];autosize=1;strokeColor=none;fillColor=none;fontSize=11;" parent="_vE2uxAOc8D60CeV_qMY-5" vertex="1">
          <mxGeometry x="10" y="90" width="50" height="30" as="geometry" />
        </mxCell>
        <mxCell id="_vE2uxAOc8D60CeV_qMY-9" value="&lt;span style=&quot;white-space: normal; font-family: &amp;quot;TH Sarabun New&amp;quot;, sans-serif; border: 1pt windowtext; padding: 0cm;&quot; lang=&quot;EN-US&quot;&gt;&lt;font&gt;lastSignInTime&lt;/font&gt;&lt;/span&gt;&lt;span style=&quot;font-family: -webkit-standard; white-space: normal;&quot;&gt;&lt;/span&gt;" style="text;html=1;align=left;verticalAlign=middle;resizable=0;points=[];autosize=1;strokeColor=none;fillColor=none;fontSize=11;" parent="_vE2uxAOc8D60CeV_qMY-5" vertex="1">
          <mxGeometry x="10" y="120" width="100" height="30" as="geometry" />
        </mxCell>
        <mxCell id="_vE2uxAOc8D60CeV_qMY-10" value="&lt;span style=&quot;white-space: normal; font-family: &amp;quot;TH Sarabun New&amp;quot;, sans-serif; border: 1pt windowtext; padding: 0cm;&quot; lang=&quot;EN-US&quot;&gt;&lt;font&gt;updatedAt&lt;/font&gt;&lt;/span&gt;&lt;span style=&quot;font-family: -webkit-standard; white-space: normal;&quot;&gt;&lt;/span&gt;" style="text;html=1;align=left;verticalAlign=middle;resizable=0;points=[];autosize=1;strokeColor=none;fillColor=none;fontSize=11;" parent="_vE2uxAOc8D60CeV_qMY-5" vertex="1">
          <mxGeometry x="10" y="150" width="70" height="30" as="geometry" />
        </mxCell>
        <mxCell id="_vE2uxAOc8D60CeV_qMY-11" value="&lt;font&gt;Number(100)&lt;/font&gt;" style="text;html=1;align=left;verticalAlign=middle;resizable=0;points=[];autosize=1;strokeColor=none;fillColor=none;fontSize=11;" parent="_vE2uxAOc8D60CeV_qMY-5" vertex="1">
          <mxGeometry x="110" y="30" width="90" height="30" as="geometry" />
        </mxCell>
        <mxCell id="_vE2uxAOc8D60CeV_qMY-12" value="&lt;font&gt;String(200)&lt;/font&gt;" style="text;html=1;align=left;verticalAlign=middle;resizable=0;points=[];autosize=1;strokeColor=none;fillColor=none;fontSize=11;" parent="_vE2uxAOc8D60CeV_qMY-5" vertex="1">
          <mxGeometry x="110" y="60" width="80" height="30" as="geometry" />
        </mxCell>
        <mxCell id="_vE2uxAOc8D60CeV_qMY-13" value="&lt;font&gt;String(200)&lt;/font&gt;" style="text;html=1;align=left;verticalAlign=middle;resizable=0;points=[];autosize=1;strokeColor=none;fillColor=none;fontSize=11;" parent="_vE2uxAOc8D60CeV_qMY-5" vertex="1">
          <mxGeometry x="110" y="90" width="80" height="30" as="geometry" />
        </mxCell>
        <mxCell id="_vE2uxAOc8D60CeV_qMY-14" value="&lt;font&gt;Timestamp(200)&lt;/font&gt;" style="text;html=1;align=left;verticalAlign=middle;resizable=0;points=[];autosize=1;strokeColor=none;fillColor=none;fontSize=11;" parent="_vE2uxAOc8D60CeV_qMY-5" vertex="1">
          <mxGeometry x="110" y="120" width="100" height="30" as="geometry" />
        </mxCell>
        <mxCell id="_vE2uxAOc8D60CeV_qMY-15" value="&lt;span&gt;Timestamp(200)&lt;/span&gt;" style="text;html=1;align=left;verticalAlign=middle;resizable=0;points=[];autosize=1;strokeColor=none;fillColor=none;fontSize=11;" parent="_vE2uxAOc8D60CeV_qMY-5" vertex="1">
          <mxGeometry x="110" y="150" width="100" height="30" as="geometry" />
        </mxCell>
        <mxCell id="_vE2uxAOc8D60CeV_qMY-16" value="PK" style="text;html=1;align=left;verticalAlign=middle;resizable=0;points=[];autosize=1;strokeColor=none;fillColor=none;fontSize=11;" parent="_vE2uxAOc8D60CeV_qMY-5" vertex="1">
          <mxGeometry x="190" y="30" width="40" height="30" as="geometry" />
        </mxCell>
        <mxCell id="_vE2uxAOc8D60CeV_qMY-17" value="&lt;span style=&quot;text-align: start; font-family: &amp;quot;TH Sarabun New&amp;quot;, sans-serif; border: 1pt windowtext; padding: 0cm;&quot; lang=&quot;EN-US&quot;&gt;&lt;font&gt;categories&lt;/font&gt;&lt;/span&gt;&lt;span style=&quot;font-family: -webkit-standard; font-size: medium; font-weight: 400; text-align: start;&quot;&gt;&lt;/span&gt;" style="swimlane;whiteSpace=wrap;html=1;fillColor=#fa6800;strokeColor=#C73500;fontColor=#000000;" parent="1" vertex="1">
          <mxGeometry x="440" y="140" width="230" height="100" as="geometry">
            <mxRectangle x="430" y="130" width="140" height="30" as="alternateBounds" />
          </mxGeometry>
        </mxCell>
        <mxCell id="_vE2uxAOc8D60CeV_qMY-18" value="&lt;div style=&quot;&quot;&gt;&lt;span style=&quot;white-space: normal; font-family: &amp;quot;TH Sarabun New&amp;quot;, sans-serif; border: 1pt windowtext; padding: 0cm;&quot; lang=&quot;EN-US&quot;&gt;&lt;font&gt;NameCategory_id&lt;/font&gt;&lt;/span&gt;&lt;span style=&quot;font-family: -webkit-standard; font-size: medium; white-space: normal;&quot;&gt;&lt;/span&gt;&lt;br&gt;&lt;/div&gt;&lt;span style=&quot;font-family: -webkit-standard; white-space: normal;&quot;&gt;&lt;/span&gt;" style="text;html=1;align=left;verticalAlign=middle;resizable=0;points=[];autosize=1;strokeColor=none;fillColor=none;fontSize=11;" parent="_vE2uxAOc8D60CeV_qMY-17" vertex="1">
          <mxGeometry x="10" y="30" width="110" height="30" as="geometry" />
        </mxCell>
        <mxCell id="_vE2uxAOc8D60CeV_qMY-19" value="&lt;font&gt;&lt;span style=&quot;white-space: normal; font-family: &amp;quot;TH Sarabun New&amp;quot;, sans-serif; border: 1pt windowtext; padding: 0cm;&quot; lang=&quot;EN-US&quot;&gt;NameCategory&lt;/span&gt;&lt;/font&gt;&lt;br&gt;&lt;span style=&quot;font-family: -webkit-standard; white-space: normal;&quot;&gt;&lt;/span&gt;" style="text;html=1;align=left;verticalAlign=middle;resizable=0;points=[];autosize=1;strokeColor=none;fillColor=none;fontSize=11;" parent="_vE2uxAOc8D60CeV_qMY-17" vertex="1">
          <mxGeometry x="10" y="60" width="100" height="30" as="geometry" />
        </mxCell>
        <mxCell id="_vE2uxAOc8D60CeV_qMY-23" value="&lt;font&gt;Number(100)&lt;/font&gt;" style="text;html=1;align=left;verticalAlign=middle;resizable=0;points=[];autosize=1;strokeColor=none;fillColor=none;fontSize=11;" parent="_vE2uxAOc8D60CeV_qMY-17" vertex="1">
          <mxGeometry x="125" y="30" width="90" height="30" as="geometry" />
        </mxCell>
        <mxCell id="_vE2uxAOc8D60CeV_qMY-24" value="&lt;font&gt;String(200)&lt;/font&gt;" style="text;html=1;align=left;verticalAlign=middle;resizable=0;points=[];autosize=1;strokeColor=none;fillColor=none;fontSize=11;" parent="_vE2uxAOc8D60CeV_qMY-17" vertex="1">
          <mxGeometry x="125" y="60" width="80" height="30" as="geometry" />
        </mxCell>
        <mxCell id="_vE2uxAOc8D60CeV_qMY-28" value="PK" style="text;html=1;align=left;verticalAlign=middle;resizable=0;points=[];autosize=1;strokeColor=none;fillColor=none;fontSize=11;" parent="_vE2uxAOc8D60CeV_qMY-17" vertex="1">
          <mxGeometry x="200" y="30" width="40" height="30" as="geometry" />
        </mxCell>
        <mxCell id="_vE2uxAOc8D60CeV_qMY-29" value="Words" style="swimlane;whiteSpace=wrap;html=1;fillColor=#fa6800;strokeColor=#C73500;fontColor=#000000;" parent="1" vertex="1">
          <mxGeometry x="650" y="410" width="240" height="280" as="geometry">
            <mxRectangle x="430" y="130" width="140" height="30" as="alternateBounds" />
          </mxGeometry>
        </mxCell>
        <mxCell id="_vE2uxAOc8D60CeV_qMY-30" value="&lt;div style=&quot;&quot;&gt;&lt;span style=&quot;white-space: normal; font-family: &amp;quot;TH Sarabun New&amp;quot;, sans-serif; border: 1pt windowtext; padding: 0cm;&quot; lang=&quot;EN-US&quot;&gt;&lt;font&gt;word_id&lt;/font&gt;&lt;/span&gt;&lt;span style=&quot;font-family: -webkit-standard; font-size: medium; white-space: normal;&quot;&gt;&lt;/span&gt;&lt;br&gt;&lt;/div&gt;&lt;span style=&quot;font-family: -webkit-standard; white-space: normal;&quot;&gt;&lt;/span&gt;" style="text;html=1;align=left;verticalAlign=middle;resizable=0;points=[];autosize=1;strokeColor=none;fillColor=none;fontSize=11;" parent="_vE2uxAOc8D60CeV_qMY-29" vertex="1">
          <mxGeometry x="10" y="30" width="60" height="30" as="geometry" />
        </mxCell>
        <mxCell id="_vE2uxAOc8D60CeV_qMY-31" value="&lt;font&gt;&lt;span style=&quot;white-space: normal; font-family: &amp;quot;TH Sarabun New&amp;quot;, sans-serif; border: 1pt windowtext; padding: 0cm;&quot; lang=&quot;EN-US&quot;&gt;imageUrl&lt;/span&gt;&lt;/font&gt;&lt;br&gt;&lt;span style=&quot;font-family: -webkit-standard; white-space: normal;&quot;&gt;&lt;/span&gt;" style="text;html=1;align=left;verticalAlign=middle;resizable=0;points=[];autosize=1;strokeColor=none;fillColor=none;fontSize=11;" parent="_vE2uxAOc8D60CeV_qMY-29" vertex="1">
          <mxGeometry x="10" y="120" width="70" height="30" as="geometry" />
        </mxCell>
        <mxCell id="_vE2uxAOc8D60CeV_qMY-32" value="&lt;font&gt;&lt;span style=&quot;white-space: normal; font-family: &amp;quot;TH Sarabun New&amp;quot;, sans-serif; border: 1pt windowtext; padding: 0cm;&quot; lang=&quot;EN-US&quot;&gt;thaiTranslation&lt;/span&gt;&lt;/font&gt;&lt;br&gt;&lt;span style=&quot;font-family: -webkit-standard; white-space: normal;&quot;&gt;&lt;/span&gt;" style="text;html=1;align=left;verticalAlign=middle;resizable=0;points=[];autosize=1;strokeColor=none;fillColor=none;fontSize=11;" parent="_vE2uxAOc8D60CeV_qMY-29" vertex="1">
          <mxGeometry x="10" y="150" width="100" height="30" as="geometry" />
        </mxCell>
        <mxCell id="_vE2uxAOc8D60CeV_qMY-33" value="&lt;font&gt;&lt;span style=&quot;white-space: normal; font-family: &amp;quot;TH Sarabun New&amp;quot;, sans-serif; border: 1pt windowtext; padding: 0cm;&quot; lang=&quot;EN-US&quot;&gt;timestamp&lt;/span&gt;&lt;/font&gt;&lt;br&gt;&lt;span style=&quot;font-family: -webkit-standard; white-space: normal;&quot;&gt;&lt;/span&gt;" style="text;html=1;align=left;verticalAlign=middle;resizable=0;points=[];autosize=1;strokeColor=none;fillColor=none;fontSize=11;" parent="_vE2uxAOc8D60CeV_qMY-29" vertex="1">
          <mxGeometry x="10" y="180" width="70" height="30" as="geometry" />
        </mxCell>
        <mxCell id="_vE2uxAOc8D60CeV_qMY-34" value="&lt;span style=&quot;font-family: &amp;quot;TH Sarabun New&amp;quot;, sans-serif; white-space: normal;&quot;&gt;vocabulary&lt;/span&gt;&lt;br&gt;&lt;span style=&quot;font-family: -webkit-standard; white-space: normal;&quot;&gt;&lt;/span&gt;" style="text;html=1;align=left;verticalAlign=middle;resizable=0;points=[];autosize=1;strokeColor=none;fillColor=none;fontSize=11;" parent="_vE2uxAOc8D60CeV_qMY-29" vertex="1">
          <mxGeometry x="10" y="210" width="80" height="30" as="geometry" />
        </mxCell>
        <mxCell id="_vE2uxAOc8D60CeV_qMY-35" value="&lt;font&gt;Number(100)&lt;/font&gt;" style="text;html=1;align=left;verticalAlign=middle;resizable=0;points=[];autosize=1;strokeColor=none;fillColor=none;fontSize=11;" parent="_vE2uxAOc8D60CeV_qMY-29" vertex="1">
          <mxGeometry x="120" y="30" width="90" height="30" as="geometry" />
        </mxCell>
        <mxCell id="_vE2uxAOc8D60CeV_qMY-36" value="&lt;font&gt;String(400)&lt;/font&gt;" style="text;html=1;align=left;verticalAlign=middle;resizable=0;points=[];autosize=1;strokeColor=none;fillColor=none;fontSize=11;" parent="_vE2uxAOc8D60CeV_qMY-29" vertex="1">
          <mxGeometry x="120" y="120" width="80" height="30" as="geometry" />
        </mxCell>
        <mxCell id="_vE2uxAOc8D60CeV_qMY-37" value="&lt;font&gt;String(200)&lt;/font&gt;" style="text;html=1;align=left;verticalAlign=middle;resizable=0;points=[];autosize=1;strokeColor=none;fillColor=none;fontSize=11;" parent="_vE2uxAOc8D60CeV_qMY-29" vertex="1">
          <mxGeometry x="120" y="150" width="80" height="30" as="geometry" />
        </mxCell>
        <mxCell id="_vE2uxAOc8D60CeV_qMY-38" value="&lt;font&gt;Timestamp(200)&lt;/font&gt;" style="text;html=1;align=left;verticalAlign=middle;resizable=0;points=[];autosize=1;strokeColor=none;fillColor=none;fontSize=11;" parent="_vE2uxAOc8D60CeV_qMY-29" vertex="1">
          <mxGeometry x="120" y="180" width="100" height="30" as="geometry" />
        </mxCell>
        <mxCell id="_vE2uxAOc8D60CeV_qMY-39" value="&lt;span&gt;Timestamp(200)&lt;/span&gt;" style="text;html=1;align=left;verticalAlign=middle;resizable=0;points=[];autosize=1;strokeColor=none;fillColor=none;fontSize=11;" parent="_vE2uxAOc8D60CeV_qMY-29" vertex="1">
          <mxGeometry x="120" y="210" width="100" height="30" as="geometry" />
        </mxCell>
        <mxCell id="_vE2uxAOc8D60CeV_qMY-40" value="PK" style="text;html=1;align=left;verticalAlign=middle;resizable=0;points=[];autosize=1;strokeColor=none;fillColor=none;fontSize=11;" parent="_vE2uxAOc8D60CeV_qMY-29" vertex="1">
          <mxGeometry x="200" y="30" width="40" height="30" as="geometry" />
        </mxCell>
        <mxCell id="_vE2uxAOc8D60CeV_qMY-42" value="&lt;span style=&quot;font-family: &amp;quot;TH Sarabun New&amp;quot;, sans-serif; white-space: normal;&quot;&gt;word&lt;/span&gt;&lt;br&gt;&lt;span style=&quot;font-family: -webkit-standard; white-space: normal;&quot;&gt;&lt;/span&gt;" style="text;html=1;align=left;verticalAlign=middle;resizable=0;points=[];autosize=1;strokeColor=none;fillColor=none;fontSize=11;" parent="_vE2uxAOc8D60CeV_qMY-29" vertex="1">
          <mxGeometry x="10" y="240" width="50" height="30" as="geometry" />
        </mxCell>
        <mxCell id="_vE2uxAOc8D60CeV_qMY-43" value="&lt;font&gt;String(100)&lt;/font&gt;" style="text;html=1;align=left;verticalAlign=middle;resizable=0;points=[];autosize=1;strokeColor=none;fillColor=none;fontSize=11;" parent="_vE2uxAOc8D60CeV_qMY-29" vertex="1">
          <mxGeometry x="120" y="240" width="80" height="30" as="geometry" />
        </mxCell>
        <mxCell id="t6qERQjH6DWRpLzziWI3-78" value="&lt;div style=&quot;&quot;&gt;&lt;span style=&quot;white-space: normal; font-family: &amp;quot;TH Sarabun New&amp;quot;, sans-serif; border: 1pt windowtext; padding: 0cm;&quot; lang=&quot;EN-US&quot;&gt;&lt;font&gt;NameCategory_id&lt;/font&gt;&lt;/span&gt;&lt;span style=&quot;font-family: -webkit-standard; font-size: medium; white-space: normal;&quot;&gt;&lt;/span&gt;&lt;br&gt;&lt;/div&gt;&lt;span style=&quot;font-family: -webkit-standard; white-space: normal;&quot;&gt;&lt;/span&gt;" style="text;html=1;align=left;verticalAlign=middle;resizable=0;points=[];autosize=1;strokeColor=none;fillColor=none;fontSize=11;" parent="_vE2uxAOc8D60CeV_qMY-29" vertex="1">
          <mxGeometry x="10" y="60" width="110" height="30" as="geometry" />
        </mxCell>
        <mxCell id="t6qERQjH6DWRpLzziWI3-79" value="&lt;font&gt;Number(100)&lt;/font&gt;" style="text;html=1;align=left;verticalAlign=middle;resizable=0;points=[];autosize=1;strokeColor=none;fillColor=none;fontSize=11;" parent="_vE2uxAOc8D60CeV_qMY-29" vertex="1">
          <mxGeometry x="120" y="60" width="90" height="30" as="geometry" />
        </mxCell>
        <mxCell id="t6qERQjH6DWRpLzziWI3-80" value="&lt;div style=&quot;&quot;&gt;&lt;span style=&quot;white-space: normal; font-family: &amp;quot;TH Sarabun New&amp;quot;, sans-serif; border: 1pt windowtext; padding: 0cm;&quot; lang=&quot;EN-US&quot;&gt;&lt;font&gt;Mode_id&lt;/font&gt;&lt;/span&gt;&lt;span style=&quot;font-family: -webkit-standard; font-size: medium; white-space: normal;&quot;&gt;&lt;/span&gt;&lt;br&gt;&lt;/div&gt;&lt;span style=&quot;font-family: -webkit-standard; white-space: normal;&quot;&gt;&lt;/span&gt;" style="text;html=1;align=left;verticalAlign=middle;resizable=0;points=[];autosize=1;strokeColor=none;fillColor=none;fontSize=11;" parent="_vE2uxAOc8D60CeV_qMY-29" vertex="1">
          <mxGeometry x="10" y="90" width="70" height="30" as="geometry" />
        </mxCell>
        <mxCell id="t6qERQjH6DWRpLzziWI3-81" value="&lt;font&gt;Number(100)&lt;/font&gt;" style="text;html=1;align=left;verticalAlign=middle;resizable=0;points=[];autosize=1;strokeColor=none;fillColor=none;fontSize=11;" parent="_vE2uxAOc8D60CeV_qMY-29" vertex="1">
          <mxGeometry x="120" y="90" width="90" height="30" as="geometry" />
        </mxCell>
        <mxCell id="t6qERQjH6DWRpLzziWI3-82" value="F&lt;span style=&quot;caret-color: rgba(0, 0, 0, 0); color: rgba(0, 0, 0, 0); font-family: monospace; font-size: 0px;&quot;&gt;%3CmxGraphModel%3E%3Croot%3E%3CmxCell%20id%3D%220%22%2F%3E%3CmxCell%20id%3D%221%22%20parent%3D%220%22%2F%3E%3CmxCell%20id%3D%222%22%20value%3D%22PK%22%20style%3D%22text%3Bhtml%3D1%3Balign%3Dleft%3BverticalAlign%3Dmiddle%3Bresizable%3D0%3Bpoints%3D%5B%5D%3Bautosize%3D1%3BstrokeColor%3Dnone%3BfillColor%3Dnone%3BfontSize%3D11%3B%22%20vertex%3D%221%22%20parent%3D%221%22%3E%3CmxGeometry%20x%3D%22690%22%20y%3D%22300%22%20width%3D%2240%22%20height%3D%2230%22%20as%3D%22geometry%22%2F%3E%3C%2FmxCell%3E%3C%2Froot%3E%3C%2FmxGraphModel%3E&lt;/span&gt;K" style="text;html=1;align=left;verticalAlign=middle;resizable=0;points=[];autosize=1;strokeColor=none;fillColor=none;fontSize=11;" parent="_vE2uxAOc8D60CeV_qMY-29" vertex="1">
          <mxGeometry x="200" y="60" width="40" height="30" as="geometry" />
        </mxCell>
        <mxCell id="t6qERQjH6DWRpLzziWI3-83" value="F&lt;span style=&quot;caret-color: rgba(0, 0, 0, 0); color: rgba(0, 0, 0, 0); font-family: monospace; font-size: 0px;&quot;&gt;%3CmxGraphModel%3E%3Croot%3E%3CmxCell%20id%3D%220%22%2F%3E%3CmxCell%20id%3D%221%22%20parent%3D%220%22%2F%3E%3CmxCell%20id%3D%222%22%20value%3D%22PK%22%20style%3D%22text%3Bhtml%3D1%3Balign%3Dleft%3BverticalAlign%3Dmiddle%3Bresizable%3D0%3Bpoints%3D%5B%5D%3Bautosize%3D1%3BstrokeColor%3Dnone%3BfillColor%3Dnone%3BfontSize%3D11%3B%22%20vertex%3D%221%22%20parent%3D%221%22%3E%3CmxGeometry%20x%3D%22690%22%20y%3D%22300%22%20width%3D%2240%22%20height%3D%2230%22%20as%3D%22geometry%22%2F%3E%3C%2FmxCell%3E%3C%2Froot%3E%3C%2FmxGraphModel%3E&lt;/span&gt;K" style="text;html=1;align=left;verticalAlign=middle;resizable=0;points=[];autosize=1;strokeColor=none;fillColor=none;fontSize=11;" parent="_vE2uxAOc8D60CeV_qMY-29" vertex="1">
          <mxGeometry x="200" y="90" width="40" height="30" as="geometry" />
        </mxCell>
        <mxCell id="_vE2uxAOc8D60CeV_qMY-44" value="Scores" style="swimlane;whiteSpace=wrap;html=1;fillColor=#fa6800;strokeColor=#C73500;fontColor=#000000;" parent="1" vertex="1">
          <mxGeometry x="280" y="440" width="220" height="280" as="geometry">
            <mxRectangle x="430" y="130" width="140" height="30" as="alternateBounds" />
          </mxGeometry>
        </mxCell>
        <mxCell id="_vE2uxAOc8D60CeV_qMY-45" value="&lt;div style=&quot;&quot;&gt;&lt;span style=&quot;white-space: normal; font-family: &amp;quot;TH Sarabun New&amp;quot;, sans-serif; border: 1pt windowtext; padding: 0cm;&quot; lang=&quot;EN-US&quot;&gt;&lt;font&gt;scores_id&lt;/font&gt;&lt;/span&gt;&lt;span style=&quot;font-family: -webkit-standard; font-size: medium; white-space: normal;&quot;&gt;&lt;/span&gt;&lt;br&gt;&lt;/div&gt;&lt;span style=&quot;font-family: -webkit-standard; white-space: normal;&quot;&gt;&lt;/span&gt;" style="text;html=1;align=left;verticalAlign=middle;resizable=0;points=[];autosize=1;strokeColor=none;fillColor=none;fontSize=11;" parent="_vE2uxAOc8D60CeV_qMY-44" vertex="1">
          <mxGeometry x="10" y="30" width="70" height="30" as="geometry" />
        </mxCell>
        <mxCell id="_vE2uxAOc8D60CeV_qMY-46" value="&lt;span style=&quot;white-space: normal; font-family: &amp;quot;TH Sarabun New&amp;quot;, sans-serif;&quot; lang=&quot;EN-US&quot;&gt;&lt;font&gt;DisplayName_id&lt;/font&gt;&lt;/span&gt;&lt;span style=&quot;font-family: -webkit-standard; font-size: medium; white-space: normal;&quot;&gt;&lt;/span&gt;&lt;br&gt;&lt;span style=&quot;font-family: -webkit-standard; white-space: normal;&quot;&gt;&lt;/span&gt;" style="text;html=1;align=left;verticalAlign=middle;resizable=0;points=[];autosize=1;strokeColor=none;fillColor=none;fontSize=11;" parent="_vE2uxAOc8D60CeV_qMY-44" vertex="1">
          <mxGeometry x="10" y="60" width="100" height="30" as="geometry" />
        </mxCell>
        <mxCell id="_vE2uxAOc8D60CeV_qMY-48" value="&lt;span style=&quot;white-space: normal; font-family: &amp;quot;TH Sarabun New&amp;quot;, sans-serif; border: 1pt windowtext; padding: 0cm;&quot; lang=&quot;EN-US&quot;&gt;&lt;font&gt;score&lt;/font&gt;&lt;/span&gt;&lt;span style=&quot;font-family: -webkit-standard; font-size: medium; white-space: normal;&quot;&gt;&lt;/span&gt;&lt;br&gt;&lt;span style=&quot;font-family: -webkit-standard; white-space: normal;&quot;&gt;&lt;/span&gt;" style="text;html=1;align=left;verticalAlign=middle;resizable=0;points=[];autosize=1;strokeColor=none;fillColor=none;fontSize=11;" parent="_vE2uxAOc8D60CeV_qMY-44" vertex="1">
          <mxGeometry x="10" y="90" width="50" height="30" as="geometry" />
        </mxCell>
        <mxCell id="_vE2uxAOc8D60CeV_qMY-49" value="&lt;span style=&quot;white-space: normal; font-family: &amp;quot;TH Sarabun New&amp;quot;, sans-serif; border: 1pt windowtext; padding: 0cm;&quot; lang=&quot;EN-US&quot;&gt;&lt;font&gt;stars&lt;/font&gt;&lt;/span&gt;&lt;span style=&quot;font-family: -webkit-standard; font-size: medium; white-space: normal;&quot;&gt;&lt;/span&gt;&lt;br&gt;&lt;span style=&quot;font-family: -webkit-standard; white-space: normal;&quot;&gt;&lt;/span&gt;" style="text;html=1;align=left;verticalAlign=middle;resizable=0;points=[];autosize=1;strokeColor=none;fillColor=none;fontSize=11;" parent="_vE2uxAOc8D60CeV_qMY-44" vertex="1">
          <mxGeometry x="10" y="120" width="50" height="30" as="geometry" />
        </mxCell>
        <mxCell id="_vE2uxAOc8D60CeV_qMY-50" value="&lt;font&gt;Number(100)&lt;/font&gt;" style="text;html=1;align=left;verticalAlign=middle;resizable=0;points=[];autosize=1;strokeColor=none;fillColor=none;fontSize=11;" parent="_vE2uxAOc8D60CeV_qMY-44" vertex="1">
          <mxGeometry x="110" y="30" width="90" height="30" as="geometry" />
        </mxCell>
        <mxCell id="_vE2uxAOc8D60CeV_qMY-51" value="&lt;font&gt;Number(100)&lt;/font&gt;" style="text;html=1;align=left;verticalAlign=middle;resizable=0;points=[];autosize=1;strokeColor=none;fillColor=none;fontSize=11;" parent="_vE2uxAOc8D60CeV_qMY-44" vertex="1">
          <mxGeometry x="110" y="60" width="90" height="30" as="geometry" />
        </mxCell>
        <mxCell id="_vE2uxAOc8D60CeV_qMY-54" value="&lt;span&gt;Number(100)&lt;/span&gt;" style="text;html=1;align=left;verticalAlign=middle;resizable=0;points=[];autosize=1;strokeColor=none;fillColor=none;fontSize=11;" parent="_vE2uxAOc8D60CeV_qMY-44" vertex="1">
          <mxGeometry x="110" y="90" width="90" height="30" as="geometry" />
        </mxCell>
        <mxCell id="_vE2uxAOc8D60CeV_qMY-56" value="&lt;span style=&quot;font-family: &amp;quot;TH Sarabun New&amp;quot;, sans-serif; white-space: normal;&quot;&gt;timestamp&lt;/span&gt;&lt;br&gt;&lt;span style=&quot;font-family: -webkit-standard; white-space: normal;&quot;&gt;&lt;/span&gt;" style="text;html=1;align=left;verticalAlign=middle;resizable=0;points=[];autosize=1;strokeColor=none;fillColor=none;fontSize=11;" parent="_vE2uxAOc8D60CeV_qMY-44" vertex="1">
          <mxGeometry x="10" y="150" width="70" height="30" as="geometry" />
        </mxCell>
        <mxCell id="_vE2uxAOc8D60CeV_qMY-57" value="&lt;span style=&quot;white-space: normal; font-family: &amp;quot;TH Sarabun New&amp;quot;, sans-serif;&quot; lang=&quot;EN-US&quot;&gt;&lt;font&gt;Number(100)&lt;/font&gt;&lt;/span&gt;&lt;span style=&quot;font-family: -webkit-standard; font-size: medium; white-space: normal;&quot;&gt;&lt;/span&gt;" style="text;html=1;align=left;verticalAlign=middle;resizable=0;points=[];autosize=1;strokeColor=none;fillColor=none;fontSize=11;" parent="_vE2uxAOc8D60CeV_qMY-44" vertex="1">
          <mxGeometry x="110" y="120" width="90" height="30" as="geometry" />
        </mxCell>
        <mxCell id="_vE2uxAOc8D60CeV_qMY-58" value="&lt;span style=&quot;caret-color: rgba(0, 0, 0, 0); color: rgba(0, 0, 0, 0); font-family: monospace; font-size: 0px;&quot;&gt;%3CmxGraphModel%3E%3Croot%3E%3CmxCell%20id%3D%220%22%2F%3E%3CmxCell%20id%3D%221%22%20parent%3D%220%22%2F%3E%3CmxCell%20id%3D%222%22%20value%3D%22%26lt%3Bspan%20style%3D%26quot%3Bwhite-space%3A%20normal%3B%20font-family%3A%20%26amp%3Bquot%3BTH%20Sarabun%20New%26amp%3Bquot%3B%2C%20sans-serif%3B%20border%3A%201pt%20windowtext%3B%20padding%3A%200cm%3B%26quot%3B%20lang%3D%26quot%3BEN-US%26quot%3B%26gt%3B%26lt%3Bfont%26gt%3Btimestamp%26lt%3B%2Ffont%26gt%3B%26lt%3B%2Fspan%26gt%3B%26lt%3Bspan%20style%3D%26quot%3Bfont-family%3A%20-webkit-standard%3B%20font-size%3A%20medium%3B%20white-space%3A%20normal%3B%26quot%3B%26gt%3B%26lt%3B%2Fspan%26gt%3B%26lt%3Bbr%26gt%3B%26lt%3Bspan%20style%3D%26quot%3Bfont-family%3A%20-webkit-standard%3B%20white-space%3A%20normal%3B%26quot%3B%26gt%3B%26lt%3B%2Fspan%26gt%3B%22%20style%3D%22text%3Bhtml%3D1%3Balign%3Dleft%3BverticalAlign%3Dmiddle%3Bresizable%3D0%3Bpoints%3D%5B%5D%3Bautosize%3D1%3BstrokeColor%3Dnone%3BfillColor%3Dnone%3BfontSize%3D11%3B%22%20vertex%3D%221%22%20parent%3D%221%22%3E%3CmxGeometry%20x%3D%22510%22%20y%3D%22450%22%20width%3D%2270%22%20height%3D%2230%22%20as%3D%22geometry%22%2F%3E%3C%2FmxCell%3E%3C%2Froot%3E%3C%2FmxGraphModel%3E&lt;/span&gt;&lt;br&gt;&lt;span style=&quot;font-family: -webkit-standard; white-space: normal;&quot;&gt;&lt;/span&gt;" style="text;html=1;align=left;verticalAlign=middle;resizable=0;points=[];autosize=1;strokeColor=none;fillColor=none;fontSize=11;" parent="_vE2uxAOc8D60CeV_qMY-44" vertex="1">
          <mxGeometry x="10" y="210" width="20" height="30" as="geometry" />
        </mxCell>
        <mxCell id="_vE2uxAOc8D60CeV_qMY-60" value="&lt;span style=&quot;white-space: normal; font-family: &amp;quot;TH Sarabun New&amp;quot;, sans-serif; border: 1pt windowtext; padding: 0cm;&quot; lang=&quot;EN-US&quot;&gt;&lt;font&gt;word_id&lt;/font&gt;&lt;/span&gt;&lt;span style=&quot;font-family: -webkit-standard; font-size: medium; white-space: normal;&quot;&gt;&lt;/span&gt;&lt;br&gt;&lt;span style=&quot;font-family: -webkit-standard; white-space: normal;&quot;&gt;&lt;/span&gt;" style="text;html=1;align=left;verticalAlign=middle;resizable=0;points=[];autosize=1;strokeColor=none;fillColor=none;fontSize=11;" parent="_vE2uxAOc8D60CeV_qMY-44" vertex="1">
          <mxGeometry x="10" y="240" width="60" height="30" as="geometry" />
        </mxCell>
        <mxCell id="wxBBJV51dhKRM2K4NjWh-1" value="&lt;span style=&quot;font-family: &amp;quot;TH Sarabun New&amp;quot;, sans-serif; white-space: normal;&quot;&gt;timestamp&lt;/span&gt;" style="text;html=1;align=left;verticalAlign=middle;resizable=0;points=[];autosize=1;strokeColor=none;fillColor=none;fontSize=11;" parent="_vE2uxAOc8D60CeV_qMY-44" vertex="1">
          <mxGeometry x="110" y="150" width="70" height="30" as="geometry" />
        </mxCell>
        <mxCell id="wxBBJV51dhKRM2K4NjWh-2" value="F&lt;span style=&quot;caret-color: rgba(0, 0, 0, 0); color: rgba(0, 0, 0, 0); font-family: monospace; font-size: 0px;&quot;&gt;%3CmxGraphModel%3E%3Croot%3E%3CmxCell%20id%3D%220%22%2F%3E%3CmxCell%20id%3D%221%22%20parent%3D%220%22%2F%3E%3CmxCell%20id%3D%222%22%20value%3D%22PK%22%20style%3D%22text%3Bhtml%3D1%3Balign%3Dleft%3BverticalAlign%3Dmiddle%3Bresizable%3D0%3Bpoints%3D%5B%5D%3Bautosize%3D1%3BstrokeColor%3Dnone%3BfillColor%3Dnone%3BfontSize%3D11%3B%22%20vertex%3D%221%22%20parent%3D%221%22%3E%3CmxGeometry%20x%3D%22690%22%20y%3D%22300%22%20width%3D%2240%22%20height%3D%2230%22%20as%3D%22geometry%22%2F%3E%3C%2FmxCell%3E%3C%2Froot%3E%3C%2FmxGraphModel%3E&lt;/span&gt;K" style="text;html=1;align=left;verticalAlign=middle;resizable=0;points=[];autosize=1;strokeColor=none;fillColor=none;fontSize=11;" parent="_vE2uxAOc8D60CeV_qMY-44" vertex="1">
          <mxGeometry x="190" y="60" width="40" height="30" as="geometry" />
        </mxCell>
        <mxCell id="_vE2uxAOc8D60CeV_qMY-55" value="PK" style="text;html=1;align=left;verticalAlign=middle;resizable=0;points=[];autosize=1;strokeColor=none;fillColor=none;fontSize=11;" parent="_vE2uxAOc8D60CeV_qMY-44" vertex="1">
          <mxGeometry x="190" y="30" width="40" height="30" as="geometry" />
        </mxCell>
        <mxCell id="t6qERQjH6DWRpLzziWI3-2" value="&lt;span&gt;Number(100)&lt;/span&gt;" style="text;html=1;align=left;verticalAlign=middle;resizable=0;points=[];autosize=1;strokeColor=none;fillColor=none;fontSize=11;" parent="_vE2uxAOc8D60CeV_qMY-44" vertex="1">
          <mxGeometry x="110" y="240" width="90" height="30" as="geometry" />
        </mxCell>
        <mxCell id="t6qERQjH6DWRpLzziWI3-3" value="F&lt;span style=&quot;caret-color: rgba(0, 0, 0, 0); color: rgba(0, 0, 0, 0); font-family: monospace; font-size: 0px;&quot;&gt;%3CmxGraphModel%3E%3Croot%3E%3CmxCell%20id%3D%220%22%2F%3E%3CmxCell%20id%3D%221%22%20parent%3D%220%22%2F%3E%3CmxCell%20id%3D%222%22%20value%3D%22PK%22%20style%3D%22text%3Bhtml%3D1%3Balign%3Dleft%3BverticalAlign%3Dmiddle%3Bresizable%3D0%3Bpoints%3D%5B%5D%3Bautosize%3D1%3BstrokeColor%3Dnone%3BfillColor%3Dnone%3BfontSize%3D11%3B%22%20vertex%3D%221%22%20parent%3D%221%22%3E%3CmxGeometry%20x%3D%22690%22%20y%3D%22300%22%20width%3D%2240%22%20height%3D%2230%22%20as%3D%22geometry%22%2F%3E%3C%2FmxCell%3E%3C%2Froot%3E%3C%2FmxGraphModel%3E&lt;/span&gt;K" style="text;html=1;align=left;verticalAlign=middle;resizable=0;points=[];autosize=1;strokeColor=none;fillColor=none;fontSize=11;" parent="_vE2uxAOc8D60CeV_qMY-44" vertex="1">
          <mxGeometry x="190" y="240" width="40" height="30" as="geometry" />
        </mxCell>
        <mxCell id="t6qERQjH6DWRpLzziWI3-93" value="&lt;br&gt;&lt;span style=&quot;font-family: -webkit-standard; white-space: normal;&quot;&gt;&lt;/span&gt;" style="text;html=1;align=left;verticalAlign=middle;resizable=0;points=[];autosize=1;strokeColor=none;fillColor=none;fontSize=11;" parent="_vE2uxAOc8D60CeV_qMY-44" vertex="1">
          <mxGeometry x="10" y="180" width="20" height="30" as="geometry" />
        </mxCell>
        <mxCell id="t6qERQjH6DWRpLzziWI3-94" value="&lt;span style=&quot;white-space: normal; font-family: &amp;quot;TH Sarabun New&amp;quot;, sans-serif; border: 1pt windowtext; padding: 0cm;&quot; lang=&quot;EN-US&quot;&gt;&lt;font&gt;totalScore&lt;/font&gt;&lt;/span&gt;&lt;span style=&quot;font-family: -webkit-standard; font-size: medium; white-space: normal;&quot;&gt;&lt;/span&gt;&lt;br&gt;&lt;span style=&quot;font-family: -webkit-standard; white-space: normal;&quot;&gt;&lt;/span&gt;" style="text;html=1;align=left;verticalAlign=middle;resizable=0;points=[];autosize=1;strokeColor=none;fillColor=none;fontSize=11;" parent="_vE2uxAOc8D60CeV_qMY-44" vertex="1">
          <mxGeometry x="10" y="210" width="70" height="30" as="geometry" />
        </mxCell>
        <mxCell id="t6qERQjH6DWRpLzziWI3-95" value="&lt;span style=&quot;font-family: &amp;quot;TH Sarabun New&amp;quot;, sans-serif; white-space: normal;&quot;&gt;Number(100)&lt;/span&gt;" style="text;html=1;align=left;verticalAlign=middle;resizable=0;points=[];autosize=1;strokeColor=none;fillColor=none;fontSize=11;" parent="_vE2uxAOc8D60CeV_qMY-44" vertex="1">
          <mxGeometry x="110" y="180" width="90" height="30" as="geometry" />
        </mxCell>
        <mxCell id="t6qERQjH6DWRpLzziWI3-96" value="&lt;span style=&quot;font-family: &amp;quot;TH Sarabun New&amp;quot;, sans-serif; white-space: normal;&quot;&gt;Number(100)&lt;/span&gt;" style="text;html=1;align=left;verticalAlign=middle;resizable=0;points=[];autosize=1;strokeColor=none;fillColor=none;fontSize=11;" parent="_vE2uxAOc8D60CeV_qMY-44" vertex="1">
          <mxGeometry x="110" y="210" width="90" height="30" as="geometry" />
        </mxCell>
        <mxCell id="t6qERQjH6DWRpLzziWI3-97" value="&lt;span style=&quot;font-family: &amp;quot;TH Sarabun New&amp;quot;, sans-serif; white-space: normal;&quot;&gt;bonsScore&lt;/span&gt;&lt;br&gt;&lt;span style=&quot;font-family: -webkit-standard; white-space: normal;&quot;&gt;&lt;/span&gt;" style="text;html=1;align=left;verticalAlign=middle;resizable=0;points=[];autosize=1;strokeColor=none;fillColor=none;fontSize=11;" parent="_vE2uxAOc8D60CeV_qMY-44" vertex="1">
          <mxGeometry x="10" y="180" width="80" height="30" as="geometry" />
        </mxCell>
        <mxCell id="t6qERQjH6DWRpLzziWI3-16" value="&lt;font style=&quot;font-size: 11px;&quot;&gt;&lt;span style=&quot;text-align: start; font-family: &amp;quot;TH Sarabun New&amp;quot;, sans-serif; border: 1pt windowtext; padding: 0cm;&quot; lang=&quot;EN-US&quot;&gt;c&lt;/span&gt;&lt;span style=&quot;text-align: start; font-family: &amp;quot;TH Sarabun New&amp;quot;, sans-serif;&quot; lang=&quot;EN-US&quot;&gt;hallengeSessions&lt;/span&gt;&lt;/font&gt;&lt;span style=&quot;font-weight: 400; text-align: start; font-size: 8.5pt; font-family: &amp;quot;Roboto Mono&amp;quot;;&quot; lang=&quot;EN-US&quot;&gt;&lt;/span&gt;&lt;span style=&quot;font-family: -webkit-standard; font-size: medium; font-weight: 400; text-align: start;&quot;&gt;&lt;/span&gt;" style="swimlane;whiteSpace=wrap;html=1;fillColor=#fa6800;strokeColor=#C73500;fontColor=#000000;" parent="1" vertex="1">
          <mxGeometry x="1043" y="320" width="250" height="220" as="geometry">
            <mxRectangle x="430" y="130" width="140" height="30" as="alternateBounds" />
          </mxGeometry>
        </mxCell>
        <mxCell id="t6qERQjH6DWRpLzziWI3-17" value="&lt;div style=&quot;&quot;&gt;&lt;span style=&quot;white-space: normal; font-family: &amp;quot;TH Sarabun New&amp;quot;, sans-serif; border: 1pt windowtext; padding: 0cm;&quot; lang=&quot;EN-US&quot;&gt;&lt;font&gt;&lt;span style=&quot;border: 1pt windowtext; padding: 0cm;&quot; lang=&quot;EN-US&quot;&gt;c&lt;/span&gt;&lt;span lang=&quot;EN-US&quot;&gt;hallengeSessions&lt;/span&gt;_id&lt;/font&gt;&lt;/span&gt;&lt;span style=&quot;font-family: -webkit-standard; font-size: medium; white-space: normal;&quot;&gt;&lt;/span&gt;&lt;br&gt;&lt;/div&gt;&lt;span style=&quot;font-family: -webkit-standard; white-space: normal;&quot;&gt;&lt;/span&gt;" style="text;html=1;align=left;verticalAlign=middle;resizable=0;points=[];autosize=1;strokeColor=none;fillColor=none;fontSize=11;" parent="t6qERQjH6DWRpLzziWI3-16" vertex="1">
          <mxGeometry x="10" y="30" width="130" height="30" as="geometry" />
        </mxCell>
        <mxCell id="t6qERQjH6DWRpLzziWI3-18" value="&lt;span style=&quot;white-space: normal; font-family: &amp;quot;TH Sarabun New&amp;quot;, sans-serif;&quot; lang=&quot;EN-US&quot;&gt;&lt;font&gt;DisplayName_id&lt;/font&gt;&lt;/span&gt;&lt;span style=&quot;font-family: -webkit-standard; font-size: medium; white-space: normal;&quot;&gt;&lt;/span&gt;&lt;br&gt;&lt;span style=&quot;font-family: -webkit-standard; white-space: normal;&quot;&gt;&lt;/span&gt;" style="text;html=1;align=left;verticalAlign=middle;resizable=0;points=[];autosize=1;strokeColor=none;fillColor=none;fontSize=11;" parent="t6qERQjH6DWRpLzziWI3-16" vertex="1">
          <mxGeometry x="10" y="60" width="100" height="30" as="geometry" />
        </mxCell>
        <mxCell id="t6qERQjH6DWRpLzziWI3-20" value="&lt;span style=&quot;white-space: normal; font-family: &amp;quot;TH Sarabun New&amp;quot;, sans-serif; border: 1pt windowtext; padding: 0cm;&quot; lang=&quot;EN-US&quot;&gt;&lt;font&gt;&lt;span style=&quot;caret-color: rgba(0, 0, 0, 0); color: rgba(0, 0, 0, 0); font-family: monospace; font-size: 0px; white-space: nowrap;&quot;&gt;%3CmxGraphModel%3E%3Croot%3E%3CmxCell%20id%3D%220%22%2F%3E%3CmxCell%20id%3D%221%22%20parent%3D%220%22%2F%3E%3CmxCell%20id%3D%222%22%20value%3D%22%22%20style%3D%22endArrow%3DERone%3Bhtml%3D1%3Brounded%3D0%3Bdashed%3D1%3BdashPattern%3D1%202%3BstartArrow%3DERone%3BstartFill%3D0%3BendFill%3D0%3B%22%20edge%3D%221%22%20parent%3D%221%22%3E%3CmxGeometry%20relative%3D%221%22%20as%3D%22geometry%22%3E%3CmxPoint%20x%3D%22650%22%20y%3D%22580%22%20as%3D%22sourcePoint%22%2F%3E%3CmxPoint%20x%3D%22500%22%20y%3D%22580%22%20as%3D%22targetPoint%22%2F%3E%3CArray%20as%3D%22points%22%2F%3E%3C%2FmxGeometry%3E%3C%2FmxCell%3E%3CmxCell%20id%3D%223%22%20value%3D%221%22%20style%3D%22resizable%3D0%3Bhtml%3D1%3BwhiteSpace%3Dwrap%3Balign%3Dleft%3BverticalAlign%3Dbottom%3B%22%20connectable%3D%220%22%20vertex%3D%221%22%20parent%3D%222%22%3E%3CmxGeometry%20x%3D%22-1%22%20relative%3D%221%22%20as%3D%22geometry%22%3E%3CmxPoint%20x%3D%22-20%22%20y%3D%22-10%22%20as%3D%22offset%22%2F%3E%3C%2FmxGeometry%3E%3C%2FmxCell%3E%3CmxCell%20id%3D%224%22%20value%3D%221%22%20style%3D%22resizable%3D0%3Bhtml%3D1%3BwhiteSpace%3Dwrap%3Balign%3Dright%3BverticalAlign%3Dbottom%3B%22%20connectable%3D%220%22%20vertex%3D%221%22%20parent%3D%222%22%3E%3CmxGeometry%20x%3D%221%22%20relative%3D%221%22%20as%3D%22geometry%22%3E%3CmxPoint%20x%3D%2220%22%20y%3D%2220%22%20as%3D%22offset%22%2F%3E%3C%2FmxGeometry%3E%3C%2FmxCell%3E%3C%2Froot%3E%3C%2FmxGraphModel%3E&lt;/span&gt;Time&lt;/font&gt;&lt;/span&gt;&lt;span style=&quot;font-family: -webkit-standard; font-size: medium; white-space: normal;&quot;&gt;&lt;/span&gt;&lt;br&gt;&lt;span style=&quot;font-family: -webkit-standard; white-space: normal;&quot;&gt;&lt;/span&gt;" style="text;html=1;align=left;verticalAlign=middle;resizable=0;points=[];autosize=1;strokeColor=none;fillColor=none;fontSize=11;" parent="t6qERQjH6DWRpLzziWI3-16" vertex="1">
          <mxGeometry x="10" y="90" width="50" height="30" as="geometry" />
        </mxCell>
        <mxCell id="t6qERQjH6DWRpLzziWI3-22" value="&lt;font&gt;Number(100)&lt;/font&gt;" style="text;html=1;align=left;verticalAlign=middle;resizable=0;points=[];autosize=1;strokeColor=none;fillColor=none;fontSize=11;" parent="t6qERQjH6DWRpLzziWI3-16" vertex="1">
          <mxGeometry x="140" y="30" width="90" height="30" as="geometry" />
        </mxCell>
        <mxCell id="t6qERQjH6DWRpLzziWI3-23" value="&lt;font&gt;Number(100)&lt;/font&gt;" style="text;html=1;align=left;verticalAlign=middle;resizable=0;points=[];autosize=1;strokeColor=none;fillColor=none;fontSize=11;" parent="t6qERQjH6DWRpLzziWI3-16" vertex="1">
          <mxGeometry x="140" y="60" width="90" height="30" as="geometry" />
        </mxCell>
        <mxCell id="t6qERQjH6DWRpLzziWI3-26" value="&lt;span&gt;Number(100)&lt;/span&gt;" style="text;html=1;align=left;verticalAlign=middle;resizable=0;points=[];autosize=1;strokeColor=none;fillColor=none;fontSize=11;" parent="t6qERQjH6DWRpLzziWI3-16" vertex="1">
          <mxGeometry x="140" y="90" width="90" height="30" as="geometry" />
        </mxCell>
        <mxCell id="t6qERQjH6DWRpLzziWI3-27" value="&lt;span style=&quot;white-space: normal; font-family: &amp;quot;TH Sarabun New&amp;quot;, sans-serif; border: 1pt windowtext; padding: 0cm;&quot; lang=&quot;EN-US&quot;&gt;&lt;font&gt;timestamp&lt;/font&gt;&lt;/span&gt;&lt;span style=&quot;font-family: -webkit-standard; font-size: medium; white-space: normal;&quot;&gt;&lt;/span&gt;&lt;br&gt;&lt;span style=&quot;font-family: -webkit-standard; white-space: normal;&quot;&gt;&lt;/span&gt;" style="text;html=1;align=left;verticalAlign=middle;resizable=0;points=[];autosize=1;strokeColor=none;fillColor=none;fontSize=11;" parent="t6qERQjH6DWRpLzziWI3-16" vertex="1">
          <mxGeometry x="10" y="150" width="70" height="30" as="geometry" />
        </mxCell>
        <mxCell id="t6qERQjH6DWRpLzziWI3-29" value="&lt;span style=&quot;caret-color: rgba(0, 0, 0, 0); color: rgba(0, 0, 0, 0); font-family: monospace; font-size: 0px;&quot;&gt;%3CmxGraphModel%3E%3Croot%3E%3CmxCell%20id%3D%220%22%2F%3E%3CmxCell%20id%3D%221%22%20parent%3D%220%22%2F%3E%3CmxCell%20id%3D%222%22%20value%3D%22%26lt%3Bspan%20style%3D%26quot%3Bwhite-space%3A%20normal%3B%20font-family%3A%20%26amp%3Bquot%3BTH%20Sarabun%20New%26amp%3Bquot%3B%2C%20sans-serif%3B%20border%3A%201pt%20windowtext%3B%20padding%3A%200cm%3B%26quot%3B%20lang%3D%26quot%3BEN-US%26quot%3B%26gt%3B%26lt%3Bfont%26gt%3Btimestamp%26lt%3B%2Ffont%26gt%3B%26lt%3B%2Fspan%26gt%3B%26lt%3Bspan%20style%3D%26quot%3Bfont-family%3A%20-webkit-standard%3B%20font-size%3A%20medium%3B%20white-space%3A%20normal%3B%26quot%3B%26gt%3B%26lt%3B%2Fspan%26gt%3B%26lt%3Bbr%26gt%3B%26lt%3Bspan%20style%3D%26quot%3Bfont-family%3A%20-webkit-standard%3B%20white-space%3A%20normal%3B%26quot%3B%26gt%3B%26lt%3B%2Fspan%26gt%3B%22%20style%3D%22text%3Bhtml%3D1%3Balign%3Dleft%3BverticalAlign%3Dmiddle%3Bresizable%3D0%3Bpoints%3D%5B%5D%3Bautosize%3D1%3BstrokeColor%3Dnone%3BfillColor%3Dnone%3BfontSize%3D11%3B%22%20vertex%3D%221%22%20parent%3D%221%22%3E%3CmxGeometry%20x%3D%22510%22%20y%3D%22450%22%20width%3D%2270%22%20height%3D%2230%22%20as%3D%22geometry%22%2F%3E%3C%2FmxCell%3E%3C%2Froot%3E%3C%2FmxGraphModel%3E&lt;/span&gt;&lt;br&gt;&lt;span style=&quot;font-family: -webkit-standard; white-space: normal;&quot;&gt;&lt;/span&gt;" style="text;html=1;align=left;verticalAlign=middle;resizable=0;points=[];autosize=1;strokeColor=none;fillColor=none;fontSize=11;" parent="t6qERQjH6DWRpLzziWI3-16" vertex="1">
          <mxGeometry x="10" y="210" width="20" height="30" as="geometry" />
        </mxCell>
        <mxCell id="t6qERQjH6DWRpLzziWI3-30" value="&lt;span style=&quot;white-space: normal; font-family: &amp;quot;TH Sarabun New&amp;quot;, sans-serif; border: 1pt windowtext; padding: 0cm;&quot; lang=&quot;EN-US&quot;&gt;&lt;font&gt;word_id&lt;/font&gt;&lt;/span&gt;&lt;span style=&quot;font-family: -webkit-standard; font-size: medium; white-space: normal;&quot;&gt;&lt;/span&gt;&lt;br&gt;&lt;span style=&quot;font-family: -webkit-standard; white-space: normal;&quot;&gt;&lt;/span&gt;" style="text;html=1;align=left;verticalAlign=middle;resizable=0;points=[];autosize=1;strokeColor=none;fillColor=none;fontSize=11;" parent="t6qERQjH6DWRpLzziWI3-16" vertex="1">
          <mxGeometry x="10" y="180" width="60" height="30" as="geometry" />
        </mxCell>
        <mxCell id="t6qERQjH6DWRpLzziWI3-31" value="&lt;span style=&quot;font-family: &amp;quot;TH Sarabun New&amp;quot;, sans-serif; white-space: normal;&quot;&gt;timestamp&lt;/span&gt;" style="text;html=1;align=left;verticalAlign=middle;resizable=0;points=[];autosize=1;strokeColor=none;fillColor=none;fontSize=11;" parent="t6qERQjH6DWRpLzziWI3-16" vertex="1">
          <mxGeometry x="140" y="150" width="70" height="30" as="geometry" />
        </mxCell>
        <mxCell id="t6qERQjH6DWRpLzziWI3-32" value="F&lt;span style=&quot;caret-color: rgba(0, 0, 0, 0); color: rgba(0, 0, 0, 0); font-family: monospace; font-size: 0px;&quot;&gt;%3CmxGraphModel%3E%3Croot%3E%3CmxCell%20id%3D%220%22%2F%3E%3CmxCell%20id%3D%221%22%20parent%3D%220%22%2F%3E%3CmxCell%20id%3D%222%22%20value%3D%22PK%22%20style%3D%22text%3Bhtml%3D1%3Balign%3Dleft%3BverticalAlign%3Dmiddle%3Bresizable%3D0%3Bpoints%3D%5B%5D%3Bautosize%3D1%3BstrokeColor%3Dnone%3BfillColor%3Dnone%3BfontSize%3D11%3B%22%20vertex%3D%221%22%20parent%3D%221%22%3E%3CmxGeometry%20x%3D%22690%22%20y%3D%22300%22%20width%3D%2240%22%20height%3D%2230%22%20as%3D%22geometry%22%2F%3E%3C%2FmxCell%3E%3C%2Froot%3E%3C%2FmxGraphModel%3E&lt;/span&gt;K" style="text;html=1;align=left;verticalAlign=middle;resizable=0;points=[];autosize=1;strokeColor=none;fillColor=none;fontSize=11;" parent="t6qERQjH6DWRpLzziWI3-16" vertex="1">
          <mxGeometry x="220" y="60" width="40" height="30" as="geometry" />
        </mxCell>
        <mxCell id="t6qERQjH6DWRpLzziWI3-34" value="&lt;br&gt;&lt;span style=&quot;font-family: -webkit-standard; white-space: normal;&quot;&gt;&lt;/span&gt;" style="text;html=1;align=left;verticalAlign=middle;resizable=0;points=[];autosize=1;strokeColor=none;fillColor=none;fontSize=11;" parent="t6qERQjH6DWRpLzziWI3-16" vertex="1">
          <mxGeometry x="10" y="90" width="20" height="30" as="geometry" />
        </mxCell>
        <mxCell id="t6qERQjH6DWRpLzziWI3-35" value="PK" style="text;html=1;align=left;verticalAlign=middle;resizable=0;points=[];autosize=1;strokeColor=none;fillColor=none;fontSize=11;" parent="t6qERQjH6DWRpLzziWI3-16" vertex="1">
          <mxGeometry x="220" y="30" width="40" height="30" as="geometry" />
        </mxCell>
        <mxCell id="t6qERQjH6DWRpLzziWI3-37" value="&lt;span&gt;Number(100)&lt;/span&gt;" style="text;html=1;align=left;verticalAlign=middle;resizable=0;points=[];autosize=1;strokeColor=none;fillColor=none;fontSize=11;" parent="t6qERQjH6DWRpLzziWI3-16" vertex="1">
          <mxGeometry x="140" y="180" width="90" height="30" as="geometry" />
        </mxCell>
        <mxCell id="t6qERQjH6DWRpLzziWI3-38" value="F&lt;span style=&quot;caret-color: rgba(0, 0, 0, 0); color: rgba(0, 0, 0, 0); font-family: monospace; font-size: 0px;&quot;&gt;%3CmxGraphModel%3E%3Croot%3E%3CmxCell%20id%3D%220%22%2F%3E%3CmxCell%20id%3D%221%22%20parent%3D%220%22%2F%3E%3CmxCell%20id%3D%222%22%20value%3D%22PK%22%20style%3D%22text%3Bhtml%3D1%3Balign%3Dleft%3BverticalAlign%3Dmiddle%3Bresizable%3D0%3Bpoints%3D%5B%5D%3Bautosize%3D1%3BstrokeColor%3Dnone%3BfillColor%3Dnone%3BfontSize%3D11%3B%22%20vertex%3D%221%22%20parent%3D%221%22%3E%3CmxGeometry%20x%3D%22690%22%20y%3D%22300%22%20width%3D%2240%22%20height%3D%2230%22%20as%3D%22geometry%22%2F%3E%3C%2FmxCell%3E%3C%2Froot%3E%3C%2FmxGraphModel%3E&lt;/span&gt;K" style="text;html=1;align=left;verticalAlign=middle;resizable=0;points=[];autosize=1;strokeColor=none;fillColor=none;fontSize=11;" parent="t6qERQjH6DWRpLzziWI3-16" vertex="1">
          <mxGeometry x="220" y="180" width="40" height="30" as="geometry" />
        </mxCell>
        <mxCell id="t6qERQjH6DWRpLzziWI3-104" value="&lt;span style=&quot;white-space: normal; font-family: &amp;quot;TH Sarabun New&amp;quot;, sans-serif; border: 1pt windowtext; padding: 0cm;&quot; lang=&quot;EN-US&quot;&gt;&lt;font&gt;&lt;span style=&quot;caret-color: rgba(0, 0, 0, 0); color: rgba(0, 0, 0, 0); font-family: monospace; font-size: 0px; white-space: nowrap;&quot;&gt;%3CmxGraphModel%3E%3Croot%3E%3CmxCell%20id%3D%220%22%2F%3E%3CmxCell%20id%3D%221%22%20parent%3D%220%22%2F%3E%3CmxCell%20id%3D%222%22%20value%3D%22%22%20style%3D%22endArrow%3DERone%3Bhtml%3D1%3Brounded%3D0%3Bdashed%3D1%3BdashPattern%3D1%202%3BstartArrow%3DERone%3BstartFill%3D0%3BendFill%3D0%3B%22%20edge%3D%221%22%20parent%3D%221%22%3E%3CmxGeometry%20relative%3D%221%22%20as%3D%22geometry%22%3E%3CmxPoint%20x%3D%22650%22%20y%3D%22580%22%20as%3D%22sourcePoint%22%2F%3E%3CmxPoint%20x%3D%22500%22%20y%3D%22580%22%20as%3D%22targetPoint%22%2F%3E%3CArray%20as%3D%22points%22%2F%3E%3C%2FmxGeometry%3E%3C%2FmxCell%3E%3CmxCell%20id%3D%223%22%20value%3D%221%22%20style%3D%22resizable%3D0%3Bhtml%3D1%3BwhiteSpace%3Dwrap%3Balign%3Dleft%3BverticalAlign%3Dbottom%3B%22%20connectable%3D%220%22%20vertex%3D%221%22%20parent%3D%222%22%3E%3CmxGeometry%20x%3D%22-1%22%20relative%3D%221%22%20as%3D%22geometry%22%3E%3CmxPoint%20x%3D%22-20%22%20y%3D%22-10%22%20as%3D%22offset%22%2F%3E%3C%2FmxGeometry%3E%3C%2FmxCell%3E%3CmxCell%20id%3D%224%22%20value%3D%221%22%20style%3D%22resizable%3D0%3Bhtml%3D1%3BwhiteSpace%3Dwrap%3Balign%3Dright%3BverticalAlign%3Dbottom%3B%22%20connectable%3D%220%22%20vertex%3D%221%22%20parent%3D%222%22%3E%3CmxGeometry%20x%3D%221%22%20relative%3D%221%22%20as%3D%22geometry%22%3E%3CmxPoint%20x%3D%2220%22%20y%3D%2220%22%20as%3D%22offset%22%2F%3E%3C%2FmxGeometry%3E%3C%2FmxCell%3E%3C%2Froot%3E%3C%2FmxGraphModel%3Etotalttttygutttygug้ร้รี้รjiknjnolfrfffvcvvgfdjhhknk&lt;/span&gt;&lt;/font&gt;&lt;/span&gt;&lt;br&gt;&lt;span style=&quot;font-family: -webkit-standard; white-space: normal;&quot;&gt;&lt;/span&gt;" style="text;html=1;align=left;verticalAlign=middle;resizable=0;points=[];autosize=1;strokeColor=none;fillColor=none;fontSize=11;" parent="t6qERQjH6DWRpLzziWI3-16" vertex="1">
          <mxGeometry x="10" y="120" width="20" height="30" as="geometry" />
        </mxCell>
        <mxCell id="2JBk1DzHXvHpotz8evkL-2" value="&lt;font style=&quot;font-size: 11px;&quot;&gt;totalTime&lt;/font&gt;" style="text;html=1;align=left;verticalAlign=middle;resizable=0;points=[];autosize=1;strokeColor=none;fillColor=none;" parent="t6qERQjH6DWRpLzziWI3-16" vertex="1">
          <mxGeometry x="10" y="120" width="70" height="30" as="geometry" />
        </mxCell>
        <mxCell id="2JBk1DzHXvHpotz8evkL-3" value="&lt;span&gt;Number(100)&lt;/span&gt;" style="text;html=1;align=left;verticalAlign=middle;resizable=0;points=[];autosize=1;strokeColor=none;fillColor=none;fontSize=11;" parent="t6qERQjH6DWRpLzziWI3-16" vertex="1">
          <mxGeometry x="140" y="120" width="90" height="30" as="geometry" />
        </mxCell>
        <mxCell id="t6qERQjH6DWRpLzziWI3-39" value="&lt;span style=&quot;text-align: start; font-family: &amp;quot;TH Sarabun New&amp;quot;, sans-serif; border: 1pt windowtext; padding: 0cm;&quot; lang=&quot;EN-US&quot;&gt;&lt;font&gt;Mode&lt;/font&gt;&lt;/span&gt;&lt;span style=&quot;font-family: -webkit-standard; font-size: medium; font-weight: 400; text-align: start;&quot;&gt;&lt;/span&gt;" style="swimlane;whiteSpace=wrap;html=1;fillColor=#fa6800;strokeColor=#C73500;fontColor=#000000;" parent="1" vertex="1">
          <mxGeometry x="770" y="160" width="210" height="100" as="geometry">
            <mxRectangle x="430" y="130" width="140" height="30" as="alternateBounds" />
          </mxGeometry>
        </mxCell>
        <mxCell id="t6qERQjH6DWRpLzziWI3-40" value="&lt;div style=&quot;&quot;&gt;&lt;span style=&quot;white-space: normal; font-family: &amp;quot;TH Sarabun New&amp;quot;, sans-serif; border: 1pt windowtext; padding: 0cm;&quot; lang=&quot;EN-US&quot;&gt;&lt;font&gt;Mode_id&lt;/font&gt;&lt;/span&gt;&lt;span style=&quot;font-family: -webkit-standard; font-size: medium; white-space: normal;&quot;&gt;&lt;/span&gt;&lt;br&gt;&lt;/div&gt;&lt;span style=&quot;font-family: -webkit-standard; white-space: normal;&quot;&gt;&lt;/span&gt;" style="text;html=1;align=left;verticalAlign=middle;resizable=0;points=[];autosize=1;strokeColor=none;fillColor=none;fontSize=11;" parent="t6qERQjH6DWRpLzziWI3-39" vertex="1">
          <mxGeometry x="10" y="30" width="70" height="30" as="geometry" />
        </mxCell>
        <mxCell id="t6qERQjH6DWRpLzziWI3-41" value="&lt;font&gt;&lt;span style=&quot;white-space: normal; font-family: &amp;quot;TH Sarabun New&amp;quot;, sans-serif; border: 1pt windowtext; padding: 0cm;&quot; lang=&quot;EN-US&quot;&gt;Mode_name&lt;/span&gt;&lt;/font&gt;&lt;br&gt;&lt;span style=&quot;font-family: -webkit-standard; white-space: normal;&quot;&gt;&lt;/span&gt;" style="text;html=1;align=left;verticalAlign=middle;resizable=0;points=[];autosize=1;strokeColor=none;fillColor=none;fontSize=11;" parent="t6qERQjH6DWRpLzziWI3-39" vertex="1">
          <mxGeometry x="10" y="60" width="80" height="30" as="geometry" />
        </mxCell>
        <mxCell id="t6qERQjH6DWRpLzziWI3-42" value="&lt;font&gt;Number(100)&lt;/font&gt;" style="text;html=1;align=left;verticalAlign=middle;resizable=0;points=[];autosize=1;strokeColor=none;fillColor=none;fontSize=11;" parent="t6qERQjH6DWRpLzziWI3-39" vertex="1">
          <mxGeometry x="100" y="30" width="90" height="30" as="geometry" />
        </mxCell>
        <mxCell id="t6qERQjH6DWRpLzziWI3-43" value="&lt;font&gt;String(200)&lt;/font&gt;" style="text;html=1;align=left;verticalAlign=middle;resizable=0;points=[];autosize=1;strokeColor=none;fillColor=none;fontSize=11;" parent="t6qERQjH6DWRpLzziWI3-39" vertex="1">
          <mxGeometry x="100" y="60" width="80" height="30" as="geometry" />
        </mxCell>
        <mxCell id="t6qERQjH6DWRpLzziWI3-44" value="PK" style="text;html=1;align=left;verticalAlign=middle;resizable=0;points=[];autosize=1;strokeColor=none;fillColor=none;fontSize=11;" parent="t6qERQjH6DWRpLzziWI3-39" vertex="1">
          <mxGeometry x="180" y="30" width="40" height="30" as="geometry" />
        </mxCell>
        <mxCell id="t6qERQjH6DWRpLzziWI3-74" value="" style="endArrow=ERone;html=1;rounded=0;dashed=1;dashPattern=1 2;startArrow=ERzeroToMany;startFill=0;endFill=0;" parent="1" edge="1">
          <mxGeometry relative="1" as="geometry">
            <mxPoint x="280" y="550" as="sourcePoint" />
            <mxPoint x="200" y="310" as="targetPoint" />
            <Array as="points">
              <mxPoint x="200" y="550" />
            </Array>
          </mxGeometry>
        </mxCell>
        <mxCell id="t6qERQjH6DWRpLzziWI3-75" value="M" style="resizable=0;html=1;whiteSpace=wrap;align=left;verticalAlign=bottom;" parent="t6qERQjH6DWRpLzziWI3-74" connectable="0" vertex="1">
          <mxGeometry x="-1" relative="1" as="geometry">
            <mxPoint x="-33" as="offset" />
          </mxGeometry>
        </mxCell>
        <mxCell id="t6qERQjH6DWRpLzziWI3-76" value="1" style="resizable=0;html=1;whiteSpace=wrap;align=right;verticalAlign=bottom;" parent="t6qERQjH6DWRpLzziWI3-74" connectable="0" vertex="1">
          <mxGeometry x="1" relative="1" as="geometry">
            <mxPoint x="-10" y="20" as="offset" />
          </mxGeometry>
        </mxCell>
        <mxCell id="t6qERQjH6DWRpLzziWI3-84" value="" style="endArrow=ERone;html=1;rounded=0;dashed=1;dashPattern=1 2;startArrow=ERzeroToMany;startFill=0;endFill=0;" parent="1" edge="1">
          <mxGeometry relative="1" as="geometry">
            <mxPoint x="650" y="480" as="sourcePoint" />
            <mxPoint x="540" y="240" as="targetPoint" />
            <Array as="points">
              <mxPoint x="540" y="480" />
            </Array>
          </mxGeometry>
        </mxCell>
        <mxCell id="t6qERQjH6DWRpLzziWI3-85" value="M" style="resizable=0;html=1;whiteSpace=wrap;align=left;verticalAlign=bottom;" parent="t6qERQjH6DWRpLzziWI3-84" connectable="0" vertex="1">
          <mxGeometry x="-1" relative="1" as="geometry">
            <mxPoint x="-33" as="offset" />
          </mxGeometry>
        </mxCell>
        <mxCell id="t6qERQjH6DWRpLzziWI3-86" value="1" style="resizable=0;html=1;whiteSpace=wrap;align=right;verticalAlign=bottom;" parent="t6qERQjH6DWRpLzziWI3-84" connectable="0" vertex="1">
          <mxGeometry x="1" relative="1" as="geometry">
            <mxPoint x="-10" y="20" as="offset" />
          </mxGeometry>
        </mxCell>
        <mxCell id="t6qERQjH6DWRpLzziWI3-87" value="" style="endArrow=ERone;html=1;rounded=0;dashed=1;dashPattern=1 2;startArrow=ERzeroToMany;startFill=0;endFill=0;" parent="1" edge="1">
          <mxGeometry relative="1" as="geometry">
            <mxPoint x="850" y="410" as="sourcePoint" />
            <mxPoint x="850" y="260" as="targetPoint" />
            <Array as="points">
              <mxPoint x="850" y="360" />
            </Array>
          </mxGeometry>
        </mxCell>
        <mxCell id="t6qERQjH6DWRpLzziWI3-88" value="M" style="resizable=0;html=1;whiteSpace=wrap;align=left;verticalAlign=bottom;" parent="t6qERQjH6DWRpLzziWI3-87" connectable="0" vertex="1">
          <mxGeometry x="-1" relative="1" as="geometry">
            <mxPoint x="10" y="-10" as="offset" />
          </mxGeometry>
        </mxCell>
        <mxCell id="t6qERQjH6DWRpLzziWI3-89" value="1" style="resizable=0;html=1;whiteSpace=wrap;align=right;verticalAlign=bottom;" parent="t6qERQjH6DWRpLzziWI3-87" connectable="0" vertex="1">
          <mxGeometry x="1" relative="1" as="geometry">
            <mxPoint x="-10" y="20" as="offset" />
          </mxGeometry>
        </mxCell>
        <mxCell id="t6qERQjH6DWRpLzziWI3-90" value="" style="endArrow=ERone;html=1;rounded=0;dashed=1;dashPattern=1 2;startArrow=ERone;startFill=0;endFill=0;" parent="1" edge="1">
          <mxGeometry relative="1" as="geometry">
            <mxPoint x="650" y="580" as="sourcePoint" />
            <mxPoint x="500" y="580" as="targetPoint" />
            <Array as="points" />
          </mxGeometry>
        </mxCell>
        <mxCell id="t6qERQjH6DWRpLzziWI3-91" value="1" style="resizable=0;html=1;whiteSpace=wrap;align=left;verticalAlign=bottom;" parent="t6qERQjH6DWRpLzziWI3-90" connectable="0" vertex="1">
          <mxGeometry x="-1" relative="1" as="geometry">
            <mxPoint x="-20" y="-10" as="offset" />
          </mxGeometry>
        </mxCell>
        <mxCell id="t6qERQjH6DWRpLzziWI3-92" value="1" style="resizable=0;html=1;whiteSpace=wrap;align=right;verticalAlign=bottom;" parent="t6qERQjH6DWRpLzziWI3-90" connectable="0" vertex="1">
          <mxGeometry x="1" relative="1" as="geometry">
            <mxPoint x="20" y="20" as="offset" />
          </mxGeometry>
        </mxCell>
        <mxCell id="t6qERQjH6DWRpLzziWI3-98" value="" style="endArrow=ERone;html=1;rounded=0;dashed=1;dashPattern=1 2;startArrow=ERzeroToMany;startFill=0;endFill=0;entryX=0.75;entryY=1;entryDx=0;entryDy=0;" parent="1" edge="1">
          <mxGeometry relative="1" as="geometry">
            <mxPoint x="1043" y="370" as="sourcePoint" />
            <mxPoint x="288" y="309.9999999999999" as="targetPoint" />
            <Array as="points">
              <mxPoint x="713" y="370" />
              <mxPoint x="363" y="370" />
              <mxPoint x="288" y="370" />
            </Array>
          </mxGeometry>
        </mxCell>
        <mxCell id="t6qERQjH6DWRpLzziWI3-99" value="M" style="resizable=0;html=1;whiteSpace=wrap;align=left;verticalAlign=bottom;" parent="t6qERQjH6DWRpLzziWI3-98" connectable="0" vertex="1">
          <mxGeometry x="-1" relative="1" as="geometry">
            <mxPoint x="-33" as="offset" />
          </mxGeometry>
        </mxCell>
        <mxCell id="t6qERQjH6DWRpLzziWI3-100" value="1" style="resizable=0;html=1;whiteSpace=wrap;align=right;verticalAlign=bottom;" parent="t6qERQjH6DWRpLzziWI3-98" connectable="0" vertex="1">
          <mxGeometry x="1" relative="1" as="geometry">
            <mxPoint x="-10" y="20" as="offset" />
          </mxGeometry>
        </mxCell>
        <mxCell id="t6qERQjH6DWRpLzziWI3-101" value="" style="endArrow=ERoneToMany;html=1;rounded=0;dashed=1;dashPattern=1 2;startArrow=ERone;startFill=0;endFill=0;" parent="1" edge="1">
          <mxGeometry relative="1" as="geometry">
            <mxPoint x="1170" y="540" as="sourcePoint" />
            <mxPoint x="890" y="630" as="targetPoint" />
            <Array as="points">
              <mxPoint x="1170" y="630" />
            </Array>
          </mxGeometry>
        </mxCell>
        <mxCell id="t6qERQjH6DWRpLzziWI3-102" value="1" style="resizable=0;html=1;whiteSpace=wrap;align=left;verticalAlign=bottom;" parent="t6qERQjH6DWRpLzziWI3-101" connectable="0" vertex="1">
          <mxGeometry x="-1" relative="1" as="geometry">
            <mxPoint x="-20" y="30" as="offset" />
          </mxGeometry>
        </mxCell>
        <mxCell id="t6qERQjH6DWRpLzziWI3-103" value="M" style="resizable=0;html=1;whiteSpace=wrap;align=right;verticalAlign=bottom;" parent="t6qERQjH6DWRpLzziWI3-101" connectable="0" vertex="1">
          <mxGeometry x="1" relative="1" as="geometry">
            <mxPoint x="20" y="20" as="offset" />
          </mxGeometry>
        </mxCell>
        <mxCell id="t6qERQjH6DWRpLzziWI3-106" value="&lt;font face=&quot;monospace&quot;&gt;&lt;span style=&quot;caret-color: rgba(0, 0, 0, 0); color: rgba(0, 0, 0, 0); font-size: 0px;&quot;&gt;Tgtyggyu&lt;/span&gt;&lt;/font&gt;&lt;span style=&quot;font-family: -webkit-standard; white-space: normal;&quot;&gt;&lt;/span&gt;" style="text;html=1;align=left;verticalAlign=middle;resizable=0;points=[];autosize=1;strokeColor=none;fillColor=none;fontSize=11;" parent="1" vertex="1">
          <mxGeometry x="1100" y="430" width="20" height="30" as="geometry" />
        </mxCell>
      </root>
    </mxGraphModel>
  </diagram>
  <diagram id="u32mySCERMVspRXVgay3" name="Page-2">
    <mxGraphModel dx="976" dy="672" grid="1" gridSize="10" guides="1" tooltips="1" connect="1" arrows="1" fold="1" page="1" pageScale="1" pageWidth="2336" pageHeight="1654" math="0" shadow="0">
      <root>
        <mxCell id="0" />
        <mxCell id="1" parent="0" />
      </root>
    </mxGraphModel>
  </diagram>
</mxfile>
